<svg id="Capa_1" enable-background="new 0 0 512 512" height="512" viewBox="0 0 512 512" width="512" xmlns="http://www.w3.org/2000/svg"><g><g><g><path d="m97.989 479.5c0 8.284 6.716 15 15 15h279.021c8.284 0 15-6.716 15-15v-457c0-8.284-6.716-15-15-15h-289.021c-8.284 0-15 6.716-15 15v381.195z" fill="#edf5fa"/><path d="m409.011 7.5h-30c8.284 0 15 6.716 15 15v467c0 8.284-6.716 13-15 13h20c8.284 0 15-4.716 15-13l10-85.805v-381.195c0-8.284-6.716-15-15-15z" fill="#d0e7f2"/><path d="m219.359 337.151h-74.642c-5.523 0-10-4.477-10-10v-84.642c0-5.523 4.477-10 10-10h74.642c5.523 0 10 4.477 10 10v84.642c0 5.523-4.477 10-10 10z" fill="#6cf5c2"/><path d="m229.359 232.51h-22c5.523 0 10 4.477 10 10v84.642c0 5.523-4.477 10-10 10h22c5.523 0 10-4.477 10-10v-84.642c0-5.524-4.477-10-10-10z" fill="#05e39c"/><path d="m357.283 337.151h-74.642c-5.523 0-10-4.477-10-10v-84.642c0-5.523 4.477-10 10-10h74.642c5.523 0 10 4.477 10 10v84.642c0 5.523-4.478 10-10 10z" fill="#978ecb"/><path d="m367.283 232.51h-22c5.523 0 10 4.477 10 10v84.642c0 5.523-4.477 10-10 10h22c5.523 0 10-4.477 10-10v-84.642c0-5.524-4.478-10-10-10z" fill="#6e61b6"/><path d="m357.283 198.926h-74.642c-5.523 0-10-4.477-10-10v-84.642c0-5.523 4.477-10 10-10h74.642c5.523 0 10 4.477 10 10v84.642c0 5.523-4.478 10-10 10z" fill="#fee97d"/><path d="m367.283 94.284h-22c5.523 0 10 4.477 10 10v84.642c0 5.523-4.477 10-10 10h22c5.523 0 10-4.477 10-10v-84.642c0-5.523-4.478-10-10-10z" fill="#fedf30"/><path d="m87.989 403.695v85.805c0 8.284 6.716 15 15 15h287.021c8.284 0 15-6.716 15-15v-85.805z" fill="#978ecb"/><path d="m394.011 403.695v85.805c0 8.284-6.716 15-15 15h30c8.284 0 15-6.716 15-15v-85.805z" fill="#6e61b6"/><circle cx="256" cy="454.098" fill="#edf5fa" r="20.686"/><path d="m219.359 198.926h-74.642c-5.523 0-10-4.477-10-10v-84.642c0-5.523 4.477-10 10-10h74.642c5.523 0 10 4.477 10 10v84.642c0 5.523-4.477 10-10 10z" fill="#e592b8"/><path d="m229.359 94.284h-22c5.523 0 10 4.477 10 10v84.642c0 5.523-4.477 10-10 10h22c5.523 0 10-4.477 10-10v-84.642c0-5.523-4.477-10-10-10z" fill="#e175a5"/></g></g><g><path d="m284.185 454.098c0-15.542-12.643-28.186-28.185-28.186s-28.186 12.644-28.186 28.186 12.643 28.186 28.186 28.186 28.185-12.644 28.185-28.186zm-41.371 0c0-7.271 5.915-13.186 13.186-13.186s13.185 5.915 13.185 13.186-5.915 13.186-13.185 13.186c-7.27-.001-13.186-5.916-13.186-13.186z"/><path d="m308.079 30.332h-104.158c-4.143 0-7.5 3.357-7.5 7.5s3.357 7.5 7.5 7.5h104.158c4.143 0 7.5-3.357 7.5-7.5s-3.357-7.5-7.5-7.5z"/><path d="m409.011 0h-306.022c-12.406 0-22.5 10.094-22.5 22.5v94.148c0 4.143 3.357 7.5 7.5 7.5 4.142 0 7.5-3.357 7.5-7.5v-94.148c0-4.136 3.364-7.5 7.5-7.5h306.021c4.136 0 7.5 3.364 7.5 7.5v373.695h-204.267c-4.143 0-7.5 3.357-7.5 7.5s3.357 7.5 7.5 7.5h204.268v78.305c0 4.136-3.364 7.5-7.5 7.5h-306.022c-4.136 0-7.5-3.364-7.5-7.5v-78.305h84.067c4.143 0 7.5-3.357 7.5-7.5s-3.357-7.5-7.5-7.5h-84.067v-246.86c0-4.143-3.358-7.5-7.5-7.5-4.143 0-7.5 3.357-7.5 7.5v340.165c0 12.406 10.094 22.5 22.5 22.5h306.021c12.406 0 22.5-10.094 22.5-22.5v-467c.001-12.406-10.093-22.5-22.499-22.5z"/><path d="m127.218 327.151c0 9.649 7.851 17.5 17.5 17.5h84.642c9.649 0 17.5-7.851 17.5-17.5v-84.641c0-9.649-7.851-17.5-17.5-17.5h-84.642c-9.649 0-17.5 7.851-17.5 17.5zm15-84.641c0-1.379 1.121-2.5 2.5-2.5h84.642c1.379 0 2.5 1.121 2.5 2.5v84.642c0 1.379-1.121 2.5-2.5 2.5h-84.642c-1.379 0-2.5-1.121-2.5-2.5z"/><path d="m367.282 225.01h-84.642c-9.649 0-17.5 7.851-17.5 17.5v84.642c0 9.649 7.851 17.5 17.5 17.5h84.642c9.649 0 17.5-7.851 17.5-17.5v-84.642c0-9.65-7.85-17.5-17.5-17.5zm2.5 102.141c0 1.379-1.121 2.5-2.5 2.5h-84.642c-1.379 0-2.5-1.121-2.5-2.5v-84.641c0-1.379 1.121-2.5 2.5-2.5h84.642c1.379 0 2.5 1.121 2.5 2.5z"/><path d="m127.218 104.284v84.642c0 9.649 7.851 17.5 17.5 17.5h84.642c9.649 0 17.5-7.851 17.5-17.5v-84.642c0-9.649-7.851-17.5-17.5-17.5h-84.642c-9.65 0-17.5 7.851-17.5 17.5zm104.641 0v84.642c0 1.379-1.121 2.5-2.5 2.5h-84.642c-1.379 0-2.5-1.121-2.5-2.5v-84.642c0-1.379 1.121-2.5 2.5-2.5h84.642c1.379 0 2.5 1.121 2.5 2.5z"/><path d="m367.282 191.426h-84.642c-1.379 0-2.5-1.121-2.5-2.5v-84.642c0-1.379 1.121-2.5 2.5-2.5h18.772c4.143 0 7.5-3.357 7.5-7.5s-3.357-7.5-7.5-7.5h-18.772c-9.649 0-17.5 7.851-17.5 17.5v84.642c0 9.649 7.851 17.5 17.5 17.5h84.642c9.649 0 17.5-7.851 17.5-17.5v-84.642c0-9.649-7.851-17.5-17.5-17.5h-33.182c-4.143 0-7.5 3.357-7.5 7.5s3.357 7.5 7.5 7.5h33.183c1.379 0 2.5 1.121 2.5 2.5v84.642c-.001 1.379-1.122 2.5-2.501 2.5z"/></g></g></svg>