<?xml version="1.0" encoding="iso-8859-1"?>
<!-- Generator: Adobe Illustrator 19.0.0, SVG Export Plug-In . SVG Version: 6.00 Build 0)  -->
<svg version="1.1" id="Capa_1" xmlns="http://www.w3.org/2000/svg" xmlns:xlink="http://www.w3.org/1999/xlink" x="0px" y="0px"
	 viewBox="0 0 512 512" style="enable-background:new 0 0 512 512;" xml:space="preserve">
<path style="fill:#DEECF1;" d="M503.708,1.585c-5.082-2.541-11.164-1.992-15.709,1.416l-183.8,137.849L120.401,3.001
	c-4.545-3.408-10.627-3.957-15.709-1.416s-8.291,7.734-8.291,13.416v289.199c0,8.285,6.715,15,15,15h385.598c8.285,0,15-6.715,15-15
	V15.001C511.999,9.319,508.79,4.126,503.708,1.585z"/>
<path style="fill:#A2D8F4;" d="M503.708,1.585c-5.084-2.543-11.164-1.994-15.709,1.416l-183.8,137.849v178.351h192.8
	c8.285,0,15-6.715,15-15v-289.2C511.999,9.319,508.79,4.126,503.708,1.585z"/>
<path style="fill:#7CC8F0;" d="M511.23,10.259C509.189,4.134,503.457,0.002,497,0.002H111.402c-6.457,0-12.189,4.133-14.23,10.258
	c-2.043,6.125,0.064,12.869,5.23,16.742L295.2,171.601c2.666,2,5.832,3,9,3c3.166,0,6.334-1,9-3L506,27.001
	C511.165,23.128,513.27,16.384,511.23,10.259z"/>
<path style="fill:#DC4BDE;" d="M159.599,192.801C71.596,192.801,0,264.397,0,352.4S71.596,512,159.599,512
	C247.605,512,319.2,440.404,319.2,352.4S247.604,192.801,159.599,192.801z"/>
<path style="fill:#9B2E5D;" d="M159.601,192.801v319.197c88.003,0,159.599-71.596,159.599-159.599S247.604,192.801,159.601,192.801z
	"/>
<path style="fill:#FFFFFF;" d="M135.499,415.599c-3.838,0-7.678-1.465-10.605-4.393c-5.859-5.857-5.859-15.355,0-21.213
	l37.594-37.596l-37.594-37.592c-5.859-5.857-5.859-15.355,0-21.213c5.857-5.858,15.355-5.859,21.213,0l48.201,48.199
	c2.813,2.813,4.393,6.627,4.393,10.605c0,3.979-1.58,7.795-4.393,10.608l-48.201,48.201
	C143.177,414.134,139.339,415.599,135.499,415.599z"/>
<path style="fill:#4BB9EC;" d="M511.23,10.259C509.189,4.134,503.457,0.002,497,0.002H304.199V174.6c3.168,0,6.334-1,9-3
	l192.8-144.599C511.165,23.128,513.27,16.384,511.23,10.259z"/>
<path style="fill:#DEECF1;" d="M198.7,352.397c0-3.978-1.58-7.793-4.393-10.605L159.6,307.086v42.426l2.887,2.887l-2.887,2.887
	v42.428l34.707-34.707C197.12,360.192,198.7,356.376,198.7,352.397z"/>
<g>
</g>
<g>
</g>
<g>
</g>
<g>
</g>
<g>
</g>
<g>
</g>
<g>
</g>
<g>
</g>
<g>
</g>
<g>
</g>
<g>
</g>
<g>
</g>
<g>
</g>
<g>
</g>
<g>
</g>
</svg>
